<svg width="25" height="25" viewBox="0 0 25 25" fill="none" xmlns="http://www.w3.org/2000/svg">
<path d="M12.0322 2.36719C12.0924 2.20461 12.3226 2.20464 12.3828 2.36719L14.4883 8.05664C14.8868 9.13321 15.7359 9.98247 16.8125 10.3809L22.501 12.4854C22.6636 12.5455 22.6636 12.7758 22.501 12.8359L16.8125 14.9414C15.7357 15.3398 14.8867 16.1889 14.4883 17.2656L12.3828 22.9541C12.3226 23.1167 12.0924 23.1167 12.0322 22.9541L9.92773 17.2656C9.52935 16.189 8.68009 15.3399 7.60352 14.9414L1.91406 12.8359C1.75152 12.7757 1.75148 12.5455 1.91406 12.4854L7.60352 10.3809C8.68014 9.98241 9.52929 9.13327 9.92773 8.05664L12.0322 2.36719Z" stroke="#325DFF"/>
<path d="M3.03042 15.6009C3.04859 15.4381 3.28526 15.4381 3.30343 15.6009L3.47274 17.1177C3.47986 17.1815 3.53021 17.2319 3.59401 17.239L5.11086 17.4083C5.27369 17.4265 5.27369 17.6632 5.11086 17.6813L3.59401 17.8506C3.53021 17.8578 3.47986 17.9081 3.47274 17.9719L3.30343 19.4888C3.28526 19.6516 3.04859 19.6516 3.03042 19.4888L2.86111 17.9719C2.85399 17.9081 2.80364 17.8578 2.73985 17.8506L1.22299 17.6813C1.06017 17.6632 1.06017 17.4265 1.22299 17.4083L2.73985 17.239C2.80364 17.2319 2.85399 17.1815 2.86111 17.1177L3.03042 15.6009Z" fill="#325DFF"/>
<path d="M19.4564 1.67611C19.4745 1.51329 19.7112 1.51329 19.7294 1.67611L20.0401 4.45991C20.0472 4.52371 20.0976 4.57406 20.1614 4.58118L22.9452 4.8919C23.108 4.91007 23.108 5.14674 22.9452 5.16491L20.1614 5.47563C20.0976 5.48275 20.0472 5.53311 20.0401 5.5969L19.7294 8.3807C19.7112 8.54352 19.4745 8.54352 19.4564 8.3807L19.1456 5.5969C19.1385 5.53311 19.0882 5.48275 19.0244 5.47563L16.2406 5.16491C16.0777 5.14674 16.0777 4.91007 16.2406 4.8919L19.0244 4.58118C19.0882 4.57406 19.1385 4.52371 19.1456 4.45991L19.4564 1.67611Z" fill="#325DFF"/>
</svg>
