<svg width="100" height="100" viewBox="0 0 100 100" fill="none" xmlns="http://www.w3.org/2000/svg">
<rect width="100" height="100" rx="50" fill="#155DFC"/>
<path d="M68.75 67.6406H35.4167C33.9812 67.6406 32.8125 66.4719 32.8125 65.0365V31.7031C32.8125 31.2887 32.6479 30.8913 32.3549 30.5983C32.0618 30.3052 31.6644 30.1406 31.25 30.1406C30.8356 30.1406 30.4382 30.3052 30.1451 30.5983C29.8521 30.8913 29.6875 31.2887 29.6875 31.7031V65.0365C29.6886 66.5556 30.2926 68.0122 31.3668 69.0864C32.4409 70.1606 33.8975 70.7645 35.4167 70.7656H68.75C69.1644 70.7656 69.5618 70.601 69.8549 70.308C70.1479 70.015 70.3125 69.6175 70.3125 69.2031C70.3125 68.7887 70.1479 68.3913 69.8549 68.0983C69.5618 67.8052 69.1644 67.6406 68.75 67.6406Z" fill="white"/>
<path d="M69.6873 38.7864C69.356 38.5375 68.9395 38.4304 68.5293 38.4886C68.119 38.5469 67.7487 38.7656 67.4998 39.0968L62.1373 46.2489L57.1165 42.9031C56.9417 42.7865 56.7453 42.7064 56.5389 42.6675C56.3325 42.6286 56.1204 42.6317 55.9152 42.6766C55.7101 42.7215 55.5161 42.8073 55.3448 42.9289C55.1736 43.0505 55.0286 43.2054 54.9185 43.3843L49.4935 52.1947L44.5769 49.126C44.2445 48.92 43.8471 48.8457 43.4628 48.9178C43.0784 48.9899 42.7349 49.2031 42.4998 49.5156L36.2498 57.8489C36.0012 58.1807 35.8945 58.5977 35.9533 59.0081C36.0121 59.4185 36.2315 59.7888 36.5633 60.0374C36.8951 60.2861 37.3121 60.3927 37.7225 60.3339C38.133 60.2751 38.5032 60.0557 38.7519 59.7239L44.1415 52.5385L49.1748 55.6781C49.529 55.8941 49.9532 55.9643 50.3581 55.8739C50.7627 55.778 51.1126 55.5255 51.331 55.1718L56.731 46.4031L61.6331 49.6697C61.9657 49.8903 62.37 49.9756 62.7633 49.9082C63.1567 49.8408 63.5095 49.6259 63.7498 49.3072L69.9998 40.9739C70.1229 40.8097 70.2125 40.623 70.2634 40.4242C70.3143 40.2254 70.3256 40.0186 70.2966 39.8154C70.2676 39.6123 70.1988 39.4169 70.0943 39.2403C69.9897 39.0638 69.8515 38.9095 69.6873 38.7864Z" fill="white"/>
<g clip-path="url(#clip0_1_1580)">
<circle cx="85" cy="15.4531" r="15" fill="#1C398E"/>
<path d="M84.5513 22.6531C83.2313 22.6531 82.1047 22.3798 81.1713 21.8331C80.2513 21.2731 79.618 20.4731 79.2713 19.4331L81.8713 18.2931C81.9647 18.7731 82.118 19.1731 82.3313 19.4931C82.5447 19.7998 82.8313 20.0331 83.1913 20.1931C83.5647 20.3531 84.0047 20.4331 84.5113 20.4331C84.9647 20.4331 85.3447 20.3531 85.6513 20.1931C85.9713 20.0198 86.218 19.7931 86.3913 19.5131C86.5647 19.2198 86.6513 18.8798 86.6513 18.4931C86.6513 18.1065 86.5713 17.7865 86.4113 17.5331C86.2513 17.2798 86.018 17.0998 85.7113 16.9931C85.418 16.8731 85.038 16.8131 84.5713 16.8131C84.398 16.8131 84.2313 16.8198 84.0713 16.8331C83.9247 16.8331 83.758 16.8465 83.5713 16.8731V14.8531C83.678 14.8665 83.7847 14.8798 83.8913 14.8931C84.0113 14.8931 84.1313 14.8931 84.2513 14.8931C84.998 14.8931 85.5313 14.7465 85.8513 14.4531C86.1847 14.1465 86.3513 13.6598 86.3513 12.9931C86.3513 12.4465 86.1847 12.0265 85.8513 11.7331C85.5313 11.4265 85.0713 11.2731 84.4713 11.2731C83.8313 11.2731 83.3247 11.4331 82.9513 11.7531C82.578 12.0598 82.318 12.5331 82.1713 13.1731L79.7113 12.2531C79.8713 11.5865 80.178 11.0131 80.6313 10.5331C81.098 10.0531 81.6713 9.68646 82.3513 9.43312C83.0313 9.16646 83.7847 9.03312 84.6113 9.03312C85.598 9.03312 86.418 9.18646 87.0713 9.49312C87.738 9.79979 88.238 10.2198 88.5713 10.7531C88.918 11.2865 89.0913 11.8998 89.0913 12.5931C89.0913 13.1398 89.0047 13.6065 88.8313 13.9931C88.6713 14.3665 88.458 14.6865 88.1913 14.9531C87.938 15.2065 87.6713 15.3998 87.3913 15.5331C87.1113 15.6665 86.8513 15.7465 86.6113 15.7731V15.8331C86.918 15.8465 87.2313 15.9131 87.5513 16.0331C87.8713 16.1398 88.1647 16.3065 88.4313 16.5331C88.7113 16.7598 88.938 17.0531 89.1113 17.4131C89.2847 17.7598 89.3713 18.1731 89.3713 18.6531C89.3713 19.4531 89.158 20.1598 88.7313 20.7731C88.318 21.3731 87.7513 21.8398 87.0313 22.1731C86.3113 22.4931 85.4847 22.6531 84.5513 22.6531Z" fill="white"/>
</g>
<defs>
<clipPath id="clip0_1_1580">
<rect width="30" height="30" fill="white" transform="translate(70 0.453125)"/>
</clipPath>
</defs>
</svg>
