<svg width="100" height="100" viewBox="0 0 100 100" fill="none" xmlns="http://www.w3.org/2000/svg">
<rect width="100" height="100" rx="50" fill="#155DFC"/>
<g clip-path="url(#clip0_1_1541)">
<path d="M46.676 64.0673C46.4327 64.1981 46.1474 64.227 45.8828 64.1474C45.6182 64.0679 45.3961 63.8865 45.2653 63.6432L33.9191 42.5419C32.8308 40.518 33.5917 37.9871 35.6156 36.8988C37.6395 35.8106 40.1704 36.5715 41.2586 38.5954L51.6182 57.8618C51.7491 58.1051 51.7779 58.3904 51.6983 58.655C51.6188 58.9196 51.4374 59.1417 51.1941 59.2725C50.9508 59.4034 50.6654 59.4322 50.4009 59.3526C50.1363 59.2731 49.9142 59.0917 49.7833 58.8484L39.4237 39.582C39.1621 39.0953 38.7178 38.7326 38.1887 38.5735C37.6595 38.4144 37.0889 38.472 36.6022 38.7337C36.1156 38.9954 35.7528 39.4397 35.5937 39.9688C35.4346 40.4979 35.4923 41.0686 35.754 41.5552L47.1002 62.6565C47.231 62.8999 47.2598 63.1852 47.1803 63.4498C47.1007 63.7143 46.9194 63.9365 46.676 64.0673Z" fill="white"/>
<path d="M56.6986 56.3127C56.4553 56.4435 56.17 56.4724 55.9054 56.3928C55.6409 56.3133 55.4187 56.1319 55.2879 55.8886L50.8481 47.6315C50.5864 47.1449 50.1421 46.7821 49.613 46.6231C49.0838 46.464 48.5132 46.5216 48.0265 46.7833C47.5399 47.0449 47.1771 47.4892 47.018 48.0184C46.859 48.5475 46.9166 49.1182 47.1783 49.6048C47.3091 49.8481 47.3379 50.1335 47.2584 50.398C47.1788 50.6626 46.9975 50.8847 46.7541 51.0156C46.5108 51.1464 46.2255 51.1752 45.9609 51.0957C45.6963 51.0161 45.4742 50.8347 45.3434 50.5914C44.2551 48.5675 45.016 46.0366 47.0399 44.9484C49.0638 43.8601 51.5947 44.621 52.683 46.6449L57.1228 54.902C57.2536 55.1453 57.2824 55.4306 57.2029 55.6952C57.1234 55.9597 56.942 56.1819 56.6986 56.3127Z" fill="white"/>
<path d="M62.2032 53.3528C61.9599 53.4836 61.6746 53.5125 61.41 53.4329C61.1454 53.3534 60.9233 53.172 60.7925 52.9287L57.3393 46.5065C57.0776 46.0199 56.6333 45.6571 56.1042 45.4981C55.5751 45.339 55.0044 45.3966 54.5177 45.6583C54.0311 45.9199 53.6683 46.3642 53.5093 46.8934C53.3502 47.4225 53.4078 47.9932 53.6695 48.4798C53.8003 48.7231 53.8291 49.0084 53.7496 49.273C53.6701 49.5376 53.4887 49.7597 53.2453 49.8906C53.002 50.0214 52.7167 50.0502 52.4521 49.9707C52.1876 49.8911 51.9654 49.7097 51.8346 49.4664C50.7463 47.4425 51.5072 44.9116 53.5311 43.8234C55.555 42.7351 58.0859 43.496 59.1742 45.5199L62.6274 51.9421C62.7582 52.1854 62.787 52.4707 62.7075 52.7353C62.6279 52.9998 62.4466 53.222 62.2032 53.3528Z" fill="white"/>
<path d="M68.2614 69.0186L57.6428 74.7283C54.5547 76.3887 50.6461 76.7566 47.1831 75.7139C43.3618 74.5635 40.1427 71.7221 37.879 67.4989C36.0042 64.0079 37.3953 59.5959 40.9788 57.669L42.7293 56.7278C42.9726 56.597 43.258 56.5681 43.5225 56.6477C43.7871 56.7272 44.0092 56.9086 44.1401 57.1519C44.2709 57.3953 44.2997 57.6806 44.2202 57.9452C44.1406 58.2097 43.9593 58.4319 43.7159 58.5627L41.9655 59.5039C39.3929 60.8872 38.3838 64.0341 39.7149 66.5141C41.7417 70.2923 44.4561 72.7143 47.7829 73.7191C51.2515 74.7634 54.6397 73.9777 56.6562 72.8934L67.2748 67.1837C70.8161 65.2796 72.1479 60.8498 70.2437 57.3084L63.8306 45.3816C63.569 44.8949 63.1247 44.5322 62.5956 44.3731C62.0664 44.214 61.4957 44.2716 61.0091 44.5333C60.5225 44.795 60.1597 45.2393 60.0006 45.7684C59.8415 46.2975 59.8992 46.8682 60.1608 47.3548C60.2917 47.5982 60.3205 47.8835 60.2409 48.1481C60.1614 48.4126 59.98 48.6348 59.7367 48.7656C59.4934 48.8964 59.208 48.9253 58.9435 48.8457C58.6789 48.7662 58.4568 48.5848 58.3259 48.3415C57.2377 46.3176 57.9986 43.7867 60.0225 42.6984C62.0464 41.6102 64.5773 42.3711 65.6655 44.395L72.0786 56.3218C74.5264 60.8742 72.8138 66.5708 68.2614 69.0186ZM47.2864 43.2073C47.1129 43.3009 46.9163 43.3432 46.7197 43.3294C46.523 43.3155 46.3344 43.246 46.1757 43.1289C46.0171 43.0119 45.895 42.8522 45.8237 42.6684C45.7524 42.4846 45.7348 42.2843 45.773 42.0909C46.1349 40.2169 45.8438 38.325 44.9282 36.6222C42.7517 32.5744 37.6899 31.0526 33.6421 33.2291C29.5944 35.4056 28.0726 40.4674 30.2491 44.5152C31.1646 46.218 32.5824 47.5041 34.3471 48.2346C34.6023 48.3399 34.8052 48.5422 34.9112 48.7971C35.0172 49.0519 35.0176 49.3385 34.9123 49.5936C34.807 49.8488 34.6047 50.0517 34.3498 50.1577C34.095 50.2637 33.8084 50.2641 33.5533 50.1588C31.3491 49.2541 29.531 47.6065 28.4142 45.5018C25.694 40.443 27.5967 34.1143 32.6555 31.3942C37.7143 28.6741 44.043 30.5767 46.7631 35.6355C47.9028 37.7276 48.2752 40.1521 47.8159 42.4897C47.7867 42.6412 47.724 42.7843 47.6324 42.9085C47.5408 43.0326 47.4225 43.1347 47.2864 43.2073Z" fill="white"/>
</g>
<g clip-path="url(#clip1_1_1541)">
<circle cx="85" cy="15.4531" r="15" fill="#1C398E"/>
<path d="M84.7798 22.4531V14.0931C84.7798 13.7865 84.7798 13.4731 84.7798 13.1531C84.7932 12.8198 84.8065 12.4798 84.8198 12.1331C84.3665 12.5465 83.8598 12.9065 83.2998 13.2131C82.7398 13.5198 82.1665 13.7331 81.5798 13.8531L81.2198 11.5331C81.5265 11.5065 81.8665 11.4198 82.2398 11.2731C82.6265 11.1131 83.0132 10.9265 83.3998 10.7131C83.7998 10.4865 84.1598 10.2531 84.4798 10.0131C84.8132 9.75979 85.0665 9.50646 85.2398 9.25312H87.4798V22.4531H84.7798Z" fill="white"/>
</g>
<defs>
<clipPath id="clip0_1_1541">
<rect width="50" height="50" fill="white" transform="translate(16.1416 39.8208) rotate(-28.267)"/>
</clipPath>
<clipPath id="clip1_1_1541">
<rect width="30" height="30" fill="white" transform="translate(70 0.453125)"/>
</clipPath>
</defs>
</svg>
