<svg width="100" height="100" viewBox="0 0 100 100" fill="none" xmlns="http://www.w3.org/2000/svg">
<rect width="100" height="100" rx="50" fill="#155DFC"/>
<path d="M30.5562 37.0174V47.2361C30.5546 58.0721 37.3483 67.9689 47.4655 71.8596C49.0971 72.4884 50.9042 72.4884 52.5358 71.8596L54.0515 71.2752C63.403 67.6783 69.4452 58.6346 69.4437 48.233V37.0174C69.4436 36.6139 69.2874 36.226 69.0078 35.935C68.7282 35.6441 68.3469 35.4726 67.9437 35.4564C62.3265 35.2377 56.5999 33.0252 50.9218 28.8783C50.654 28.6832 50.3312 28.5781 49.9999 28.5781C49.6686 28.5781 49.3458 28.6832 49.078 28.8783C43.3983 33.0252 37.6718 35.2377 32.0577 35.4564C31.654 35.4722 31.272 35.6437 30.992 35.9351C30.7121 36.2264 30.5558 36.6133 30.5562 37.0174ZM33.6812 38.4799C39.1249 37.9643 44.603 35.8111 49.9999 32.058C55.3952 35.8111 60.8749 37.9643 66.3187 38.4799V48.2314C66.3202 57.3283 61.0655 65.2283 52.9296 68.3564L51.414 68.9408C50.504 69.2919 49.4959 69.2919 48.5858 68.9408C39.6702 65.5111 33.6796 56.7893 33.6796 47.2377V38.4783L33.6812 38.4799Z" fill="white"/>
<path d="M46.7999 56.9065C47.0929 57.1994 47.4903 57.364 47.9046 57.364C48.3189 57.364 48.7163 57.1994 49.0093 56.9065L58.7281 47.1893C58.8773 47.0452 58.9963 46.8728 59.0782 46.6821C59.1601 46.4915 59.2032 46.2865 59.205 46.079C59.2068 45.8715 59.1673 45.6658 59.0887 45.4738C59.0101 45.2817 58.8941 45.1073 58.7474 44.9606C58.6007 44.8139 58.4263 44.6978 58.2342 44.6193C58.0422 44.5407 57.8365 44.5012 57.629 44.503C57.4215 44.5048 57.2165 44.5479 57.0259 44.6298C56.8352 44.7117 56.6628 44.8307 56.5187 44.9799L47.9046 53.594L43.4827 49.169C43.3377 49.0238 43.1654 48.9087 42.9758 48.83C42.7863 48.7514 42.5831 48.7109 42.3778 48.7109C42.1726 48.7108 41.9694 48.7512 41.7797 48.8296C41.5901 48.9081 41.4178 49.0232 41.2726 49.1682C41.1274 49.3133 41.0122 49.4855 40.9336 49.6751C40.855 49.8647 40.8145 50.0679 40.8145 50.2731C40.8144 50.4784 40.8547 50.6816 40.9332 50.8712C41.0117 51.0609 41.1267 51.2332 41.2718 51.3784L46.7999 56.9065Z" fill="white"/>
<g clip-path="url(#clip0_1_1592)">
<circle cx="85" cy="15.4531" r="15" fill="#1C398E"/>
<path d="M85.9919 22.4531V19.3531H79.5519V17.5531C79.6185 17.4198 79.7119 17.2598 79.8319 17.0731C79.9652 16.8731 80.1119 16.6465 80.2719 16.3931L85.1919 9.25312H88.4919V17.3531H90.6319V19.3531H88.4919V22.4531H85.9919ZM81.9119 17.3531H86.0119V12.9931C86.0119 12.7131 86.0185 12.4131 86.0319 12.0931C86.0452 11.7731 86.0585 11.4598 86.0719 11.1531H86.0319C85.8852 11.4465 85.7052 11.7665 85.4919 12.1131C85.2919 12.4465 85.1052 12.7465 84.9319 13.0131L82.1719 16.9731C82.1319 17.0398 82.0852 17.1065 82.0319 17.1731C81.9919 17.2265 81.9519 17.2865 81.9119 17.3531Z" fill="white"/>
</g>
<defs>
<clipPath id="clip0_1_1592">
<rect width="30" height="30" fill="white" transform="translate(70 0.453125)"/>
</clipPath>
</defs>
</svg>
